<svg id="visual" viewBox="0 0 900 200" width="900" height="200" xmlns="http://www.w3.org/2000/svg" xmlns:xlink="http://www.w3.org/1999/xlink" version="1.1"><path d="M0 37L7.8 35C15.7 33 31.3 29 47.2 30.7C63 32.3 79 39.7 94.8 42.7C110.7 45.7 126.3 44.3 142 40.7C157.7 37 173.3 31 189.2 31.7C205 32.3 221 39.7 236.8 39.7C252.7 39.7 268.3 32.3 284.2 29.3C300 26.3 316 27.7 331.8 31.7C347.7 35.7 363.3 42.3 379 39.3C394.7 36.3 410.3 23.7 426.2 24C442 24.3 458 37.7 473.8 39.3C489.7 41 505.3 31 521 32C536.7 33 552.3 45 568.2 46C584 47 600 37 615.8 31.7C631.7 26.3 647.3 25.7 663.2 22C679 18.3 695 11.7 710.8 14.3C726.7 17 742.3 29 758 30C773.7 31 789.3 21 805.2 15.3C821 9.7 837 8.3 852.8 12C868.7 15.7 884.3 24.3 892.2 28.7L900 33L900 0L892.2 0C884.3 0 868.7 0 852.8 0C837 0 821 0 805.2 0C789.3 0 773.7 0 758 0C742.3 0 726.7 0 710.8 0C695 0 679 0 663.2 0C647.3 0 631.7 0 615.8 0C600 0 584 0 568.2 0C552.3 0 536.7 0 521 0C505.3 0 489.7 0 473.8 0C458 0 442 0 426.2 0C410.3 0 394.7 0 379 0C363.3 0 347.7 0 331.8 0C316 0 300 0 284.2 0C268.3 0 252.7 0 236.8 0C221 0 205 0 189.2 0C173.3 0 157.7 0 142 0C126.3 0 110.7 0 94.8 0C79 0 63 0 47.2 0C31.3 0 15.7 0 7.8 0L0 0Z" fill="#212121"></path><path d="M0 49L7.8 55.7C15.7 62.3 31.3 75.7 47.2 83.3C63 91 79 93 94.8 89.7C110.7 86.3 126.3 77.7 142 76C157.7 74.3 173.3 79.7 189.2 78C205 76.3 221 67.7 236.8 60.7C252.7 53.7 268.3 48.3 284.2 51.7C300 55 316 67 331.8 75C347.7 83 363.3 87 379 79.7C394.7 72.3 410.3 53.7 426.2 48.3C442 43 458 51 473.8 55.3C489.7 59.7 505.3 60.3 521 66C536.7 71.7 552.3 82.3 568.2 79.3C584 76.3 600 59.7 615.8 49.3C631.7 39 647.3 35 663.2 39.7C679 44.3 695 57.7 710.8 61C726.7 64.3 742.3 57.7 758 54.7C773.7 51.7 789.3 52.3 805.2 52.7C821 53 837 53 852.8 54.7C868.7 56.3 884.3 59.7 892.2 61.3L900 63L900 31L892.2 26.7C884.3 22.3 868.7 13.7 852.8 10C837 6.3 821 7.7 805.2 13.3C789.3 19 773.7 29 758 28C742.3 27 726.7 15 710.8 12.3C695 9.7 679 16.3 663.2 20C647.3 23.7 631.7 24.3 615.8 29.7C600 35 584 45 568.2 44C552.3 43 536.7 31 521 30C505.3 29 489.7 39 473.8 37.3C458 35.7 442 22.3 426.2 22C410.3 21.7 394.7 34.3 379 37.3C363.3 40.3 347.7 33.7 331.8 29.7C316 25.7 300 24.3 284.2 27.3C268.3 30.3 252.7 37.7 236.8 37.7C221 37.7 205 30.3 189.2 29.7C173.3 29 157.7 35 142 38.7C126.3 42.3 110.7 43.7 94.8 40.7C79 37.7 63 30.3 47.2 28.7C31.3 27 15.7 31 7.8 33L0 35Z" fill="#514d47"></path><path d="M0 133L7.8 131C15.7 129 31.3 125 47.2 127.3C63 129.7 79 138.3 94.8 143.7C110.7 149 126.3 151 142 147.7C157.7 144.3 173.3 135.7 189.2 122.7C205 109.7 221 92.3 236.8 82.3C252.7 72.3 268.3 69.7 284.2 83.7C300 97.7 316 128.3 331.8 141.3C347.7 154.3 363.3 149.7 379 142.7C394.7 135.7 410.3 126.3 426.2 125.3C442 124.3 458 131.7 473.8 125C489.7 118.3 505.3 97.7 521 94C536.7 90.3 552.3 103.7 568.2 105C584 106.3 600 95.7 615.8 101.3C631.7 107 647.3 129 663.2 138C679 147 695 143 710.8 145.7C726.7 148.3 742.3 157.7 758 145.7C773.7 133.7 789.3 100.3 805.2 87.3C821 74.3 837 81.7 852.8 84.3C868.7 87 884.3 85 892.2 84L900 83L900 61L892.2 59.3C884.3 57.7 868.7 54.3 852.8 52.7C837 51 821 51 805.2 50.7C789.3 50.3 773.7 49.7 758 52.7C742.3 55.7 726.7 62.3 710.8 59C695 55.7 679 42.3 663.2 37.7C647.3 33 631.7 37 615.8 47.3C600 57.7 584 74.3 568.2 77.3C552.3 80.3 536.7 69.7 521 64C505.3 58.3 489.7 57.7 473.8 53.3C458 49 442 41 426.2 46.3C410.3 51.7 394.7 70.3 379 77.7C363.3 85 347.7 81 331.8 73C316 65 300 53 284.2 49.7C268.3 46.3 252.7 51.7 236.8 58.7C221 65.7 205 74.3 189.2 76C173.3 77.7 157.7 72.3 142 74C126.3 75.7 110.7 84.3 94.8 87.7C79 91 63 89 47.2 81.3C31.3 73.7 15.7 60.3 7.8 53.7L0 47Z" fill="#877e70"></path><path d="M0 185L7.8 185.7C15.7 186.3 31.3 187.7 47.2 183.7C63 179.7 79 170.3 94.8 169.3C110.7 168.3 126.3 175.7 142 181.3C157.7 187 173.3 191 189.2 193C205 195 221 195 236.8 195C252.7 195 268.3 195 284.2 194.3C300 193.7 316 192.3 331.8 188C347.7 183.7 363.3 176.3 379 175C394.7 173.7 410.3 178.3 426.2 180.7C442 183 458 183 473.8 181C489.7 179 505.3 175 521 177.3C536.7 179.7 552.3 188.3 568.2 187.3C584 186.3 600 175.7 615.8 173.3C631.7 171 647.3 177 663.2 176C679 175 695 167 710.8 169.3C726.7 171.7 742.3 184.3 758 185C773.7 185.7 789.3 174.3 805.2 171.7C821 169 837 175 852.8 177.7C868.7 180.3 884.3 179.7 892.2 179.3L900 179L900 81L892.2 82C884.3 83 868.7 85 852.8 82.3C837 79.7 821 72.3 805.2 85.3C789.3 98.3 773.7 131.7 758 143.7C742.3 155.7 726.7 146.3 710.8 143.7C695 141 679 145 663.2 136C647.3 127 631.7 105 615.8 99.3C600 93.7 584 104.3 568.2 103C552.3 101.7 536.7 88.3 521 92C505.3 95.7 489.7 116.3 473.8 123C458 129.7 442 122.3 426.2 123.3C410.3 124.3 394.7 133.7 379 140.7C363.3 147.7 347.7 152.3 331.8 139.3C316 126.3 300 95.7 284.2 81.7C268.3 67.7 252.7 70.3 236.8 80.3C221 90.3 205 107.7 189.2 120.7C173.3 133.7 157.7 142.3 142 145.7C126.3 149 110.7 147 94.8 141.7C79 136.3 63 127.7 47.2 125.3C31.3 123 15.7 127 7.8 129L0 131Z" fill="#c1b29c"></path><path d="M0 201L7.8 201C15.7 201 31.3 201 47.2 201C63 201 79 201 94.8 201C110.7 201 126.3 201 142 201C157.7 201 173.3 201 189.2 201C205 201 221 201 236.8 201C252.7 201 268.3 201 284.2 201C300 201 316 201 331.8 201C347.7 201 363.3 201 379 201C394.7 201 410.3 201 426.2 201C442 201 458 201 473.8 201C489.7 201 505.3 201 521 201C536.7 201 552.3 201 568.2 201C584 201 600 201 615.8 201C631.7 201 647.3 201 663.2 201C679 201 695 201 710.8 201C726.7 201 742.3 201 758 201C773.7 201 789.3 201 805.2 201C821 201 837 201 852.8 201C868.7 201 884.3 201 892.2 201L900 201L900 177L892.2 177.3C884.3 177.7 868.7 178.3 852.8 175.7C837 173 821 167 805.2 169.7C789.3 172.3 773.7 183.7 758 183C742.3 182.3 726.7 169.7 710.8 167.3C695 165 679 173 663.2 174C647.3 175 631.7 169 615.8 171.3C600 173.7 584 184.3 568.2 185.3C552.3 186.3 536.7 177.7 521 175.3C505.3 173 489.7 177 473.8 179C458 181 442 181 426.2 178.7C410.3 176.3 394.7 171.7 379 173C363.3 174.3 347.7 181.7 331.8 186C316 190.3 300 191.7 284.2 192.3C268.3 193 252.7 193 236.8 193C221 193 205 193 189.2 191C173.3 189 157.7 185 142 179.3C126.3 173.7 110.7 166.3 94.8 167.3C79 168.3 63 177.7 47.2 181.7C31.3 185.7 15.7 184.3 7.8 183.7L0 183Z" fill="#ffeaca"></path></svg>